PathFileType	4	(X/Y/Z)	..\data\2015007\dynamic\2015007_C4_03.trc
DataRate	CameraRate	NumFrames	NumMarkers	Units	OrigDataRate	OrigDataStartFrame	OrigNumFrames
100.000000	100.000000	4	52	mm	100.000000	83	166
Frame#	Time	L_IAS			L_IPS			R_IPS			R_IAS			L_FTC			L_FLE			L_FME			L_FAX			L_TTC			L_FAL			L_TAM			L_FCC			L_FM1			L_FM2			L_FM5			R_FTC			R_FLE			R_FME			R_FAX			R_TTC			R_FAL			R_TAM			R_FCC			R_FM1			R_FM2			R_FM5			CV7			TV10			SXS			SJN			L_SIA			L_SRS			L_SAA			L_SAE			L_HLE			L_HME			L_UOA			L_RSP			L_UHE			L_HM2			L_HM5			R_SIA			R_SRS			R_SAA			R_SAE			R_HLE			R_HME			R_UOA			R_RSP			R_UHE			R_HM2			R_HM5			
		X1	Y1	Z1	X2	Y2	Z2	X3	Y3	Z3	X4	Y4	Z4	X5	Y5	Z5	X6	Y6	Z6	X7	Y7	Z7	X8	Y8	Z8	X9	Y9	Z9	X10	Y10	Z10	X11	Y11	Z11	X12	Y12	Z12	X13	Y13	Z13	X14	Y14	Z14	X15	Y15	Z15	X16	Y16	Z16	X17	Y17	Z17	X18	Y18	Z18	X19	Y19	Z19	X20	Y20	Z20	X21	Y21	Z21	X22	Y22	Z22	X23	Y23	Z23	X24	Y24	Z24	X25	Y25	Z25	X26	Y26	Z26	X27	Y27	Z27	X28	Y28	Z28	X29	Y29	Z29	X30	Y30	Z30	X31	Y31	Z31	X32	Y32	Z32	X33	Y33	Z33	X34	Y34	Z34	X35	Y35	Z35	X36	Y36	Z36	X37	Y37	Z37	X38	Y38	Z38	X39	Y39	Z39	X40	Y40	Z40	X41	Y41	Z41	X42	Y42	Z42	X43	Y43	Z43	X44	Y44	Z44	X45	Y45	Z45	X46	Y46	Z46	X47	Y47	Z47	X48	Y48	Z48	X49	Y49	Z49	X50	Y50	Z50	X51	Y51	Z51	X52	Y52	Z52	

84	0.8300000000000001	-244.2977294921876	918.7515869140627	78.50595092773436	-459.1159973144532	925.5356445312502	158.9678802490234	-450.5470275878908	924.3815917968752	263.8070678710938	-234.6921386718751	913.335388183594	327.5733642578125	-328.6788330078126	811.6724853515627	22.26179504394528	-277.2058715820313	441.4522094726564	92.88126373291014	-289.2832031250001	429.7683105468751	213.9349365234375	-293.9205322265626	382.8559265136719	87.28596496582028	-248.0706329345704	372.5263366699219	143.5732879638672	-340.4533996582032	65.07173156738283	136.2312469482422	-325.2785339355469	71.70973205566408	218.2695770263672	-388.3105468750001	17.91340065002442	185.7713012695312	-214.5332641601563	19.06122398376465	198.8814086914063	-209.8648834228516	30.87117004394532	147.9928894042969	-265.0061645507813	16.23212051391602	106.8676910400391	-318.089569091797	808.4270629882815	391.8165283203126	-212.6587066650392	451.2265014648439	353.3039855957032	-190.8398437500001	427.6985168457032	229.1717987060547	-242.8766326904298	411.7231750488282	357.566162109375	-197.2301483154298	374.5668029785157	323.2111511230469	-444.4306945800783	153.4883575439453	328.6293640136719	-400.9468383789064	139.1628723144532	256.7479248046875	-496.7906799316408	128.6186065673828	268.0652770996094	-354.5016174316407	36.62100219726563	292.4736938476562	-360.1351013183595	53.17206954956056	331.8892517089844	-417.2273254394533	62.67446136474611	370.912353515625	-362.8918151855469	1415.785400390625	229.7095184326172	-456.3203125000001	1177.859497070313	207.1574096679688	-190.6913299560547	1085.525268554688	198.0641326904297	-246.4778900146485	1334.98388671875	215.4856262207032	-459.2406005859376	1228.856323242188	125.4469985961914	-421.0577392578126	1357.564453125	122.3589401245117	-378.0317382812501	1365.236694335938	58.71068191528317	-328.6188659667969	1373.662109375	45.04231643676754	-362.2940063476563	1067.68017578125	-43.94069290161138	-383.9046630859376	1054.5966796875	30.98997688293453	-389.5237426757814	1042.602661132813	-17.91926383972173	-259.2267150878907	847.9546508789065	-40.10761260986332	-329.3632202148438	845.1145019531252	-82.33625030517584	-233.3831939697266	787.7165527343752	-57.43992233276371	-325.2065734863282	784.9444580078127	-90.95059967041021	-459.9126586914064	1215.507202148438	291.5643615722656	-417.763397216797	1338.69775390625	303.6896057128906	-363.6722717285157	1337.860961914063	375.6977844238281	-316.2661437988282	1341.430053710938	391.7227172851563	-323.6940917968751	1021.499328613281	448.8995361328126	-364.6365356445314	1012.420227050781	388.5367736816407	-352.3833312988282	991.1859130859377	433.6668701171876	-223.5828247070314	815.317077636719	423.4917907714845	-266.1962280273439	809.9246826171877	467.7995300292969	-186.0322723388673	742.7327880859376	428.101287841797	-253.8599395751954	742.3226928710939	477.5218200683594	
85	0.84	-234.9972839355469	919.0269775390627	77.73587799072264	-449.190887451172	926.2760009765627	159.305419921875	-440.2198791503908	925.3687744140627	264.1154479980469	-224.4109191894532	914.6431884765627	326.5691528320313	-320.0992431640626	811.9133911132815	22.07676506042477	-275.1356811523438	441.1143188476564	92.62305450439452	-287.1715393066407	429.5131225585939	213.8178405761719	-292.3254699707032	382.7833251953126	87.0551834106445	-246.442611694336	372.0624694824219	143.2465057373047	-340.3401184082032	65.06221008300783	136.3573150634766	-325.1128234863282	71.74546051025392	218.371566772461	-388.2437438964845	18.05175590515137	185.8585205078125	-214.4414367675782	19.07707023620606	198.8296356201172	-209.7451934814454	30.87032890319825	147.9227752685547	-264.9811096191407	16.250883102417	106.8414154052734	-306.6267395019532	809.7431640625002	392.1110229492188	-194.2989501953126	453.9155578613282	352.6674804687501	-173.2130584716797	431.3330383300782	228.2033081054688	-223.3335571289064	412.777069091797	356.8672485351563	-176.5876770019532	377.8552856445313	322.3613586425782	-412.8545837402345	144.9248657226563	328.7690124511719	-369.2073974609376	133.0250854492188	256.7892150878906	-464.5960083007814	117.164665222168	268.761474609375	-316.7800292968751	34.00446701049805	292.5314636230469	-322.9027404785157	50.38619995117189	331.8018493652344	-380.3309631347657	56.33527755737306	371.3916015625	-352.4165344238282	1416.472778320313	229.0855102539062	-445.9689331054689	1178.545654296875	205.5501403808594	-180.5394897460938	1086.325561523438	198.0988006591797	-236.0415344238282	1335.581298828125	215.2732849121094	-448.4500122070314	1229.87744140625	124.0990219116211	-410.1824035644532	1358.469604492188	121.358154296875	-366.8464050292969	1366.287719726563	57.95809936523435	-317.3564147949219	1374.736572265625	44.6156196594238	-347.7843627929688	1068.390991210938	-45.40003204345708	-370.0688171386719	1054.995361328125	29.40968704223629	-375.1794128417969	1042.952514648438	-19.56867218017583	-241.2447662353516	850.4542236328127	-40.49871444702152	-310.7732849121094	846.4653320312502	-83.3025741577149	-214.157211303711	790.8591918945315	-57.76837539672856	-305.5657958984376	786.3590087890627	-91.92673492431646	-450.0040893554689	1216.239379882813	289.9549255371094	-407.8197631835939	1339.327270507813	302.5112915039062	-354.2618103027345	1338.333618164063	374.8592529296875	-307.046844482422	1341.887573242188	391.2698364257813	-316.657684326172	1022.081237792969	448.2373962402344	-356.9529724121095	1013.330993652344	387.4593200683594	-345.2739868164064	991.976989746094	432.8371887207032	-217.5186614990236	815.2692871093752	423.8574829101564	-260.6275634765626	810.1253662109377	467.7077636718751	-180.4471282958985	742.4934082031251	428.7897033691407	-248.7871704101564	742.3308105468751	477.4464416503907	
86	0.85	-225.7946014404297	919.0786743164065	76.9696807861328	-439.2540588378907	926.798767089844	159.7937469482422	-429.8612670898439	926.1189575195315	264.5946044921875	-214.0646362304688	915.5781860351565	325.5512695312501	-311.4189758300782	812.0263671875002	21.91602706909176	-273.0261535644532	440.7569580078126	92.40354919433592	-285.0850219726563	429.1622009277345	213.7514953613282	-290.7047424316407	382.7007751464844	86.85526275634763	-244.7931213378907	371.5802307128907	142.9456176757812	-340.2146606445313	65.06926727294923	136.4850158691406	-324.9667358398438	71.77651214599611	218.4767303466797	-388.189178466797	18.1759090423584	185.9557495117187	-214.3401184082032	19.11353302001953	198.7795562744141	-209.618865966797	30.89678955078126	147.8524475097656	-264.9307861328126	16.29032707214356	106.8182373046875	-295.2106933593751	810.7869873046877	392.4410705566407	-176.4658203125001	456.3587951660157	351.9947204589844	-156.4129180908204	434.6490783691407	227.1259765625	-204.220916748047	413.5349731445314	356.2170715332032	-156.4008789062501	381.0181884765626	321.4673767089844	-380.464813232422	136.1054840087891	329.1259155273438	-336.6865844726564	126.7766799926758	256.9853820800781	-431.2756652832033	105.4962997436524	269.6525268554688	-278.3342285156251	31.64120483398438	292.8030395507812	-285.0562438964845	47.75089645385743	331.9261779785156	-342.6957397460939	50.11091995239259	372.0558471679688	-341.9169616699219	1416.960693359375	228.4780731201172	-435.6199645996095	1179.055786132813	204.0252838134766	-170.356674194336	1086.874389648438	198.1041564941407	-225.5813903808595	1335.963989257813	215.0864715576172	-437.6289062500001	1230.676513671875	122.7950668334961	-399.275604248047	1359.1591796875	120.3793411254883	-355.6299438476563	1367.103881835938	57.22996520996091	-306.0653991699219	1375.566162109375	44.2095031738281	-333.2450561523438	1068.879516601563	-46.76984024047857	-356.2042236328126	1055.17431640625	27.91578674316403	-360.7667846679688	1043.072021484375	-21.13154029846196	-223.2799682617188	852.802917480469	-40.75544738769535	-292.1512756347657	847.647155761719	-84.08568572998053	-194.955307006836	793.8663330078127	-57.92315673828129	-285.9448547363282	787.6163330078127	-92.64836883544926	-440.0876464843752	1216.788818359375	288.3937072753906	-397.8585815429689	1339.772338867188	301.3614501953125	-344.8204956054689	1338.620727539063	374.039794921875	-297.7942504882814	1342.146118164063	390.8222961425782	-309.5864562988282	1022.49462890625	447.6292114257813	-349.2363281250001	1014.032592773438	386.4484252929688	-338.1373291015626	992.592224121094	432.0579833984376	-211.4352264404298	815.049499511719	424.327606201172	-255.0436553955079	810.1723632812502	467.7172241210938	-174.8575286865235	742.0861206054689	429.6167907714845	-243.6987762451173	742.1885375976564	477.4845275878907	
87	0.86	-216.6383209228516	918.876647949219	76.23336791992186	-429.2987365722657	927.107116699219	160.3839263916015	-419.4927368164064	926.629821777344	265.1838989257812	-203.6737823486329	916.1441650390627	324.5693359375001	-302.6338500976563	812.0051269531252	21.78295898437497	-270.8511962890626	440.3804626464845	92.21956634521483	-282.9648437500001	428.7343750000001	213.7234191894532	-289.0368957519532	382.6017150878907	86.68341064453124	-243.0958557128907	371.0716857910157	142.6604461669922	-340.0822448730469	65.09275817871095	136.6138153076172	-324.8362731933594	71.80039215087892	218.5846099853516	-388.1533813476564	18.2905559539795	186.0705871582031	-214.2361145019532	19.16195678710938	198.7295074462891	-209.4942321777345	30.93904685974122	147.78173828125	-264.8630981445313	16.33987045288086	106.797737121582	-283.8804016113282	811.5631103515627	392.7765808105469	-159.2343139648438	458.5239868164064	351.3023986816407	-140.5035400390626	437.5677490234376	225.9803771972657	-185.5988006591798	414.0088500976564	355.6329040527344	-136.7351837158204	384.0411376953126	320.5551147460938	-347.2883911132814	127.2574234008789	329.6800231933594	-303.4175415039064	120.6088485717774	257.3247985839844	-396.8237304687502	93.85298156738283	270.6994018554688	-239.2524719238282	29.71375274658204	293.2967224121094	-246.6853332519532	45.45659255981446	332.2747497558594	-304.3791809082032	44.23691177368165	372.8886108398438	-331.3833312988282	1417.244995117188	227.8916931152344	-425.2779235839845	1179.396484375	202.6001281738281	-160.1450347900391	1087.148193359375	198.0991821289063	-215.0879821777345	1336.124267578125	214.9242095947266	-426.7813415527345	1231.252685546875	121.5420455932617	-388.3316345214845	1359.63427734375	119.4292755126953	-344.3750610351563	1367.679443359375	56.528450012207	-294.7362976074219	1376.136108398438	43.82628631591794	-318.6876525878907	1069.143188476563	-48.03924179077153	-342.3185424804688	1055.13037109375	26.50809478759762	-346.2770996093751	1042.955444335938	-22.60793685913091	-205.3523559570313	854.9849853515627	-40.87603378295902	-273.5422973632813	848.6460571289065	-84.6807022094727	-175.7960052490235	796.7203369140627	-57.90867233276371	-266.3734436035157	788.7048950195315	-93.12199401855473	-430.1489562988283	1217.14892578125	286.8936462402344	-387.8651123046877	1340.030395507813	300.251953125	-335.3269348144532	1338.719848632813	373.2481689453125	-288.4829711914064	1342.203491210938	390.3851318359376	-302.445526123047	1022.736328125	447.0743103027344	-341.4638671875001	1014.519836425781	385.5090942382813	-330.9432067871095	993.0283203125002	431.3234558105469	-205.3248901367189	814.6437988281252	424.8948364257814	-249.4299316406251	810.059997558594	467.8289794921876	-169.2635955810548	741.4933471679689	430.577606201172	-238.5884857177736	741.8970947265626	477.6460571289063	
